<?xml version="1.0" encoding="UTF-8" standalone="no"?>
<!DOCTYPE svg PUBLIC "-//W3C//DTD SVG 1.1//EN" "http://www.w3.org/Graphics/SVG/1.1/DTD/svg11.dtd">
<svg width="1366" height="928" viewBox="0 0 1366 928" version="1.1" xmlns="http://www.w3.org/2000/svg" xmlns:xlink="http://www.w3.org/1999/xlink" xml:space="preserve" xmlns:serif="http://www.serif.com/" style="fill-rule:evenodd;clip-rule:evenodd;stroke-linejoin:round;stroke-miterlimit:2;">
    <g id="Artboard1" transform="matrix(0.705214,0,0,0.705214,0,0)">
        <rect x="0" y="0" width="1937" height="1317.06" style="fill:none;"/>
        <g id="Camada1" transform="matrix(1.02319,0,0,1.02319,-9.16755,-3.04794)">
            <g id="txt-bg" transform="matrix(1,0,0,1,2.5,-132.941)">
                <g transform="matrix(1,0,0,1,0,0.114019)">
                    <rect x="1733.5" y="160" width="50" height="49.66" style="fill:white;fill-rule:nonzero;"/>
                </g>
                <rect x="1733.5" y="380.7" width="50" height="49.66" style="fill:white;fill-rule:nonzero;"/>
                <rect x="1733.5" y="598.95" width="50" height="49.66" style="fill:white;fill-rule:nonzero;"/>
                <rect x="1733.5" y="820.34" width="50" height="49.66" style="fill:white;fill-rule:nonzero;"/>
                <rect x="1733.5" y="1260" width="50" height="49.66" style="fill:white;fill-rule:nonzero;"/>
                <rect x="1733.5" y="1040.23" width="50" height="49.66" style="fill:white;fill-rule:nonzero;"/>
            </g>
            <path id="motor" d="M44.46,66.059L151.01,66.059C166.85,66.059 172.97,80.459 172.97,98.459L172.97,106.559C172.97,124.559 166.85,138.959 151.01,138.959L44.46,138.959C28.63,138.959 22.5,124.559 22.5,106.559L22.5,98.459C22.5,80.459 28.63,66.059 44.46,66.059ZM151.01,65.879L151.01,138.959M44.46,138.959L44.46,65.879M148.456,154.334L47.014,154.334L62.374,138.959L133.096,138.959L148.456,154.334Z" fill="#93C2E4" style="fill-rule:nonzero;"/>
            <g id="xv" transform="matrix(1,0,0,1,2.5,-132.941)">
                <path id="xv1" d="M1708.5,209.66L1708.5,269.66L1758.5,239.66L1708.5,209.66ZM1808.5,269.66L1808.5,209.66L1758.5,239.66L1808.5,269.66Z" fill="#93C2E4" style="fill-rule:nonzero;"/>
                <path id="xv2" d="M1708.5,430.36L1708.5,490.36L1758.5,460.36L1708.5,430.36ZM1808.5,490.36L1808.5,430.36L1758.5,460.36L1808.5,490.36Z" fill="#93C2E4" style="fill-rule:nonzero;"/>
                <path id="xv3" d="M1708.5,648.6L1708.5,708.6L1758.5,678.6L1708.5,648.6ZM1808.5,708.6L1808.5,648.6L1758.5,678.6L1808.5,708.6Z" fill="#93C2E4" style="fill-rule:nonzero;"/>
                <path id="xv4" d="M1708.5,870L1708.5,930L1758.5,900L1708.5,870ZM1808.5,930L1808.5,870L1758.5,900L1808.5,930Z" fill="#93C2E4" style="fill-rule:nonzero;"/>
                <path id="xv6" d="M1708.5,1309.66L1708.5,1369.66L1758.5,1339.66L1708.5,1309.66ZM1808.5,1369.66L1808.5,1309.66L1758.5,1339.66L1808.5,1369.66Z" fill="#93C2E4" style="fill-rule:nonzero;"/>
                <path id="xv5" d="M1708.5,1089.9L1708.5,1149.9L1758.5,1119.9L1708.5,1089.9ZM1808.5,1149.9L1808.5,1089.9L1758.5,1119.9L1808.5,1149.9Z" fill="#93C2E4" style="fill-rule:nonzero;"/>
            </g>
            <g id="txt" transform="matrix(1,0,0,1,2.5,-132.941)">
                <g transform="matrix(1,0,0,1,1729.46,1406.22)">
                    <g transform="matrix(0.0864198,0,0,0.0864198,0,0)">
                        <path d="M195,0L121,-108L45,0L8,0L102,-129L15,-248L52,-248L121,-150L188,-248L225,-248L141,-130L233,0L195,0" style="fill:rgb(40,44,51);"/>
                    </g>
                    <g transform="matrix(0.0864198,0,0,0.0864198,20.7407,0)">
                        <path d="M137,0L103,0L2,-248L37,-248L120,-30L203,-248L239,-248" style="fill:rgb(40,44,51);"/>
                    </g>
                    <g transform="matrix(0.0864198,0,0,0.0864198,41.4815,0)">
                        <path d="M110,-160C158,-159 184,-130 184,-81C184,-28 156,4 104,4C39,4 21,-51 18,-118C13,-208 68,-280 151,-240C165,-233 173,-219 178,-201L147,-195C142,-235 80,-233 65,-201C56,-182 50,-157 50,-127C61,-147 80,-161 110,-160ZM103,-22C137,-22 152,-45 152,-80C152,-115 136,-136 102,-136C73,-136 52,-120 53,-87C54,-51 68,-22 103,-22" style="fill:rgb(40,44,51);"/>
                    </g>
                </g>
                <g id="p" transform="matrix(0.0834708,0,0,0.0834708,1748.48,195.298)">
                    <path d="M185,-189C180,-237 62,-243 61,-187C75,-112 219,-173 224,-68C227,10 103,19 49,-13C32,-23 21,-39 16,-59L49,-66C54,-10 190,-3 190,-67C190,-145 35,-81 28,-185C23,-267 173,-269 207,-219C212,-212 215,-203 218,-194" style="fill:rgb(40,44,51);fill-rule:nonzero;"/>
                </g>
                <g id="p1" serif:id="p" transform="matrix(0.0834708,0,0,0.0834708,1748.48,415.884)">
                    <path d="M185,-189C180,-237 62,-243 61,-187C75,-112 219,-173 224,-68C227,10 103,19 49,-13C32,-23 21,-39 16,-59L49,-66C54,-10 190,-3 190,-67C190,-145 35,-81 28,-185C23,-267 173,-269 207,-219C212,-212 215,-203 218,-194" style="fill:rgb(40,44,51);fill-rule:nonzero;"/>
                </g>
                <g id="p2" serif:id="p" transform="matrix(0.0834708,0,0,0.0834708,1748.48,634.134)">
                    <path d="M185,-189C180,-237 62,-243 61,-187C75,-112 219,-173 224,-68C227,10 103,19 49,-13C32,-23 21,-39 16,-59L49,-66C54,-10 190,-3 190,-67C190,-145 35,-81 28,-185C23,-267 173,-269 207,-219C212,-212 215,-203 218,-194" style="fill:rgb(40,44,51);fill-rule:nonzero;"/>
                </g>
                <g id="p3" serif:id="p" transform="matrix(0.0834708,0,0,0.0834708,1748.48,855.524)">
                    <path d="M185,-189C180,-237 62,-243 61,-187C75,-112 219,-173 224,-68C227,10 103,19 49,-13C32,-23 21,-39 16,-59L49,-66C54,-10 190,-3 190,-67C190,-145 35,-81 28,-185C23,-267 173,-269 207,-219C212,-212 215,-203 218,-194" style="fill:rgb(40,44,51);fill-rule:nonzero;"/>
                </g>
                <g id="p4" serif:id="p" transform="matrix(0.0834708,0,0,0.0834708,1748.48,1075.41)">
                    <path d="M185,-189C180,-237 62,-243 61,-187C75,-112 219,-173 224,-68C227,10 103,19 49,-13C32,-23 21,-39 16,-59L49,-66C54,-10 190,-3 190,-67C190,-145 35,-81 28,-185C23,-267 173,-269 207,-219C212,-212 215,-203 218,-194" style="fill:rgb(40,44,51);fill-rule:nonzero;"/>
                </g>
                <g id="p5" serif:id="p" transform="matrix(0.0834708,0,0,0.0834708,1748.48,1295.18)">
                    <path d="M185,-189C180,-237 62,-243 61,-187C75,-112 219,-173 224,-68C227,10 103,19 49,-13C32,-23 21,-39 16,-59L49,-66C54,-10 190,-3 190,-67C190,-145 35,-81 28,-185C23,-267 173,-269 207,-219C212,-212 215,-203 218,-194" style="fill:rgb(40,44,51);fill-rule:nonzero;"/>
                </g>
                <g transform="matrix(0.622843,0,0,0.622843,260.821,156.57)">
                    <path d="M741.923,489.809L741.923,453.032L758.229,453.032C761.507,453.032 763.999,453.367 765.705,454.036C767.411,454.688 768.774,455.85 769.794,457.523C770.814,459.195 771.324,461.043 771.324,463.067C771.324,465.676 770.48,467.875 768.791,469.665C767.101,471.454 764.492,472.591 760.964,473.076C762.251,473.695 763.23,474.306 763.899,474.908C765.32,476.212 766.667,477.843 767.938,479.8L774.335,489.809L768.214,489.809L763.347,482.158C761.925,479.95 760.755,478.261 759.835,477.09C758.915,475.92 758.087,475.1 757.351,474.632C756.632,474.164 755.896,473.837 755.144,473.653C754.592,473.536 753.689,473.478 752.434,473.478L746.79,473.478L746.79,489.809L741.923,489.809ZM746.79,469.263L757.251,469.263C759.475,469.263 761.214,469.038 762.469,468.586C763.723,468.118 764.676,467.382 765.329,466.378C765.981,465.358 766.307,464.254 766.307,463.067C766.307,461.328 765.672,459.898 764.4,458.777C763.146,457.657 761.156,457.096 758.43,457.096L746.79,457.096L746.79,469.263Z" style="fill:rgb(63,63,63);fill-rule:nonzero;"/>
                    <path d="M796.612,481.23L801.278,481.807C800.542,484.533 799.179,486.648 797.189,488.154C795.198,489.659 792.656,490.411 789.562,490.411C785.666,490.411 782.572,489.216 780.28,486.824C778.006,484.416 776.869,481.046 776.869,476.714C776.869,472.232 778.023,468.753 780.33,466.278C782.638,463.803 785.632,462.565 789.311,462.565C792.874,462.565 795.784,463.778 798.042,466.203C800.299,468.628 801.428,472.04 801.428,476.438C801.428,476.706 801.42,477.107 801.403,477.642L781.535,477.642C781.702,480.569 782.53,482.81 784.018,484.365C785.507,485.921 787.363,486.698 789.587,486.698C791.243,486.698 792.656,486.264 793.827,485.394C794.998,484.524 795.926,483.136 796.612,481.23ZM781.786,473.929L796.662,473.929C796.461,471.688 795.893,470.008 794.956,468.887C793.518,467.148 791.653,466.278 789.362,466.278C787.288,466.278 785.54,466.972 784.119,468.36C782.714,469.748 781.936,471.605 781.786,473.929Z" style="fill:rgb(63,63,63);fill-rule:nonzero;"/>
                    <path d="M805.141,481.857L809.607,481.154C809.857,482.944 810.551,484.315 811.689,485.269C812.843,486.222 814.448,486.698 816.505,486.698C818.579,486.698 820.118,486.28 821.121,485.444C822.125,484.591 822.626,483.596 822.626,482.459C822.626,481.439 822.183,480.636 821.297,480.051C820.678,479.649 819.139,479.139 816.681,478.52C813.37,477.684 811.07,476.965 809.782,476.363C808.511,475.744 807.541,474.899 806.872,473.829C806.22,472.742 805.894,471.546 805.894,470.242C805.894,469.054 806.161,467.959 806.696,466.955C807.248,465.935 807.993,465.091 808.929,464.422C809.632,463.903 810.585,463.468 811.789,463.117C813.01,462.749 814.314,462.565 815.703,462.565C817.793,462.565 819.624,462.866 821.197,463.468C822.785,464.07 823.956,464.89 824.709,465.927C825.461,466.947 825.98,468.318 826.264,470.041L821.849,470.643C821.648,469.272 821.063,468.201 820.093,467.432C819.139,466.663 817.785,466.278 816.029,466.278C813.955,466.278 812.475,466.621 811.588,467.307C810.702,467.992 810.259,468.795 810.259,469.715C810.259,470.3 810.443,470.827 810.811,471.295C811.179,471.78 811.756,472.182 812.542,472.499C812.993,472.667 814.323,473.051 816.53,473.653C819.725,474.506 821.949,475.209 823.203,475.761C824.475,476.296 825.47,477.082 826.189,478.119C826.908,479.156 827.268,480.444 827.268,481.982C827.268,483.487 826.824,484.909 825.938,486.247C825.068,487.568 823.806,488.597 822.15,489.333C820.494,490.052 818.621,490.411 816.53,490.411C813.068,490.411 810.426,489.692 808.603,488.254C806.797,486.816 805.643,484.683 805.141,481.857Z" style="fill:rgb(63,63,63);fill-rule:nonzero;"/>
                    <path d="M850.874,481.23L855.54,481.807C854.804,484.533 853.441,486.648 851.451,488.154C849.461,489.659 846.919,490.411 843.825,490.411C839.928,490.411 836.834,489.216 834.543,486.824C832.268,484.416 831.131,481.046 831.131,476.714C831.131,472.232 832.285,468.753 834.593,466.278C836.901,463.803 839.894,462.565 843.574,462.565C847.136,462.565 850.046,463.778 852.304,466.203C854.562,468.628 855.691,472.04 855.691,476.438C855.691,476.706 855.682,477.107 855.666,477.642L835.797,477.642C835.964,480.569 836.792,482.81 838.281,484.365C839.769,485.921 841.625,486.698 843.85,486.698C845.505,486.698 846.919,486.264 848.089,485.394C849.26,484.524 850.188,483.136 850.874,481.23ZM836.048,473.929L850.924,473.929C850.723,471.688 850.155,470.008 849.218,468.887C847.78,467.148 845.915,466.278 843.624,466.278C841.55,466.278 839.802,466.972 838.381,468.36C836.976,469.748 836.198,471.605 836.048,473.929Z" style="fill:rgb(63,63,63);fill-rule:nonzero;"/>
                    <path d="M861.159,489.809L861.159,463.167L865.224,463.167L865.224,467.206C866.26,465.316 867.214,464.07 868.083,463.468C868.97,462.866 869.94,462.565 870.993,462.565C872.515,462.565 874.062,463.05 875.634,464.02L874.079,468.21C872.975,467.557 871.871,467.231 870.768,467.231C869.781,467.231 868.895,467.532 868.108,468.134C867.322,468.72 866.762,469.539 866.428,470.593C865.926,472.198 865.675,473.954 865.675,475.861L865.675,489.809L861.159,489.809Z" style="fill:rgb(63,63,63);fill-rule:nonzero;"/>
                    <path d="M885.719,489.809L875.584,463.167L880.351,463.167L886.07,479.122C886.689,480.845 887.258,482.634 887.776,484.491C888.178,483.086 888.738,481.397 889.457,479.423L895.378,463.167L900.019,463.167L889.934,489.809L885.719,489.809Z" style="fill:rgb(63,63,63);fill-rule:nonzero;"/>
                    <path d="M921.392,486.523C919.72,487.944 918.106,488.948 916.551,489.533C915.012,490.119 913.356,490.411 911.584,490.411C908.657,490.411 906.407,489.701 904.835,488.279C903.263,486.841 902.477,485.009 902.477,482.785C902.477,481.48 902.77,480.293 903.355,479.223C903.957,478.136 904.735,477.266 905.688,476.614C906.658,475.961 907.745,475.468 908.949,475.134C909.836,474.899 911.174,474.674 912.963,474.456C916.609,474.021 919.294,473.503 921.016,472.901C921.033,472.282 921.041,471.889 921.041,471.722C921.041,469.882 920.615,468.586 919.762,467.833C918.608,466.813 916.894,466.303 914.619,466.303C912.495,466.303 910.923,466.679 909.903,467.432C908.899,468.168 908.155,469.481 907.67,471.371L903.255,470.768C903.656,468.879 904.317,467.357 905.237,466.203C906.156,465.032 907.486,464.137 909.225,463.518C910.965,462.883 912.98,462.565 915.271,462.565C917.546,462.565 919.394,462.833 920.815,463.368C922.237,463.903 923.282,464.58 923.951,465.4C924.62,466.203 925.089,467.223 925.356,468.461C925.507,469.23 925.582,470.618 925.582,472.625L925.582,478.646C925.582,482.844 925.674,485.503 925.858,486.623C926.059,487.727 926.443,488.789 927.012,489.809L922.296,489.809C921.827,488.873 921.526,487.777 921.392,486.523ZM921.016,476.438C919.377,477.107 916.919,477.676 913.641,478.144C911.784,478.412 910.471,478.713 909.702,479.047C908.933,479.382 908.339,479.875 907.921,480.527C907.503,481.163 907.294,481.873 907.294,482.66C907.294,483.864 907.745,484.867 908.648,485.67C909.568,486.473 910.906,486.874 912.662,486.874C914.402,486.874 915.949,486.498 917.303,485.745C918.658,484.976 919.653,483.931 920.289,482.609C920.774,481.589 921.016,480.084 921.016,478.094L921.016,476.438Z" style="fill:rgb(63,63,63);fill-rule:nonzero;"/>
                    <path d="M942.44,485.77L943.092,489.759C941.821,490.027 940.684,490.16 939.681,490.16C938.042,490.16 936.771,489.901 935.867,489.383C934.964,488.864 934.329,488.187 933.961,487.351C933.593,486.498 933.409,484.717 933.409,482.007L933.409,466.679L930.097,466.679L930.097,463.167L933.409,463.167L933.409,456.569L937.899,453.86L937.899,463.167L942.44,463.167L942.44,466.679L937.899,466.679L937.899,482.258C937.899,483.546 937.975,484.374 938.125,484.742C938.292,485.11 938.552,485.402 938.903,485.62C939.271,485.837 939.789,485.946 940.458,485.946C940.96,485.946 941.621,485.887 942.44,485.77Z" style="fill:rgb(63,63,63);fill-rule:nonzero;"/>
                    <path d="M945.175,476.488C945.175,471.555 946.546,467.9 949.289,465.525C951.58,463.552 954.373,462.565 957.668,462.565C961.33,462.565 964.324,463.769 966.649,466.178C968.973,468.569 970.136,471.881 970.136,476.112C970.136,479.54 969.617,482.241 968.58,484.215C967.56,486.172 966.063,487.694 964.09,488.781C962.133,489.868 959.992,490.411 957.668,490.411C953.938,490.411 950.919,489.216 948.611,486.824C946.32,484.432 945.175,480.987 945.175,476.488ZM949.816,476.488C949.816,479.9 950.56,482.459 952.048,484.165C953.537,485.854 955.41,486.698 957.668,486.698C959.909,486.698 961.773,485.846 963.262,484.14C964.75,482.434 965.495,479.833 965.495,476.338C965.495,473.043 964.742,470.551 963.237,468.862C961.748,467.156 959.892,466.303 957.668,466.303C955.41,466.303 953.537,467.148 952.048,468.837C950.56,470.526 949.816,473.076 949.816,476.488ZM955.159,459.856L958.495,452.832L964.416,452.832L958.897,459.856L955.159,459.856Z" style="fill:rgb(63,63,63);fill-rule:nonzero;"/>
                    <path d="M975.379,489.809L975.379,463.167L979.443,463.167L979.443,467.206C980.48,465.316 981.433,464.07 982.303,463.468C983.189,462.866 984.159,462.565 985.213,462.565C986.735,462.565 988.282,463.05 989.854,464.02L988.298,468.21C987.195,467.557 986.091,467.231 984.987,467.231C984,467.231 983.114,467.532 982.328,468.134C981.542,468.72 980.981,469.539 980.647,470.593C980.145,472.198 979.894,473.954 979.894,475.861L979.894,489.809L975.379,489.809Z" style="fill:rgb(63,63,63);fill-rule:nonzero;"/>
                    <path d="M992.563,458.225L992.563,453.032L997.079,453.032L997.079,458.225L992.563,458.225ZM992.563,489.809L992.563,463.167L997.079,463.167L997.079,489.809L992.563,489.809Z" style="fill:rgb(63,63,63);fill-rule:nonzero;"/>
                    <path d="M1002.27,476.488C1002.27,471.555 1003.64,467.9 1006.39,465.525C1008.68,463.552 1011.47,462.565 1014.76,462.565C1018.43,462.565 1021.42,463.769 1023.75,466.178C1026.07,468.569 1027.23,471.881 1027.23,476.112C1027.23,479.54 1026.71,482.241 1025.68,484.215C1024.66,486.172 1023.16,487.694 1021.19,488.781C1019.23,489.868 1017.09,490.411 1014.76,490.411C1011.03,490.411 1008.02,489.216 1005.71,486.824C1003.42,484.432 1002.27,480.987 1002.27,476.488ZM1006.91,476.488C1006.91,479.9 1007.66,482.459 1009.14,484.165C1010.63,485.854 1012.51,486.698 1014.76,486.698C1017.01,486.698 1018.87,485.846 1020.36,484.14C1021.85,482.434 1022.59,479.833 1022.59,476.338C1022.59,473.043 1021.84,470.551 1020.33,468.862C1018.85,467.156 1016.99,466.303 1014.76,466.303C1012.51,466.303 1010.63,467.148 1009.14,468.837C1007.66,470.526 1006.91,473.076 1006.91,476.488Z" style="fill:rgb(63,63,63);fill-rule:nonzero;"/>
                    <path d="M1064.09,489.809L1064.09,486.448C1062.4,489.09 1059.91,490.411 1056.63,490.411C1054.51,490.411 1052.55,489.826 1050.76,488.655C1048.99,487.485 1047.61,485.854 1046.62,483.763C1045.65,481.656 1045.17,479.239 1045.17,476.513C1045.17,473.854 1045.61,471.446 1046.5,469.288C1047.39,467.114 1048.71,465.45 1050.49,464.296C1052.26,463.142 1054.24,462.565 1056.43,462.565C1058.04,462.565 1059.47,462.908 1060.72,463.594C1061.98,464.263 1063,465.141 1063.78,466.228L1063.78,453.032L1068.27,453.032L1068.27,489.809L1064.09,489.809ZM1049.81,476.513C1049.81,479.925 1050.53,482.476 1051.97,484.165C1053.41,485.854 1055.1,486.698 1057.06,486.698C1059.03,486.698 1060.71,485.896 1062.08,484.29C1063.47,482.668 1064.16,480.201 1064.16,476.89C1064.16,473.244 1063.46,470.568 1062.05,468.862C1060.65,467.156 1058.92,466.303 1056.86,466.303C1054.85,466.303 1053.17,467.123 1051.82,468.762C1050.48,470.401 1049.81,472.984 1049.81,476.513Z" style="fill:rgb(63,63,63);fill-rule:nonzero;"/>
                    <path d="M1093.61,481.23L1098.28,481.807C1097.54,484.533 1096.18,486.648 1094.19,488.154C1092.2,489.659 1089.66,490.411 1086.56,490.411C1082.67,490.411 1079.57,489.216 1077.28,486.824C1075.01,484.416 1073.87,481.046 1073.87,476.714C1073.87,472.232 1075.02,468.753 1077.33,466.278C1079.64,463.803 1082.63,462.565 1086.31,462.565C1089.87,462.565 1092.78,463.778 1095.04,466.203C1097.3,468.628 1098.43,472.04 1098.43,476.438C1098.43,476.706 1098.42,477.107 1098.4,477.642L1078.54,477.642C1078.7,480.569 1079.53,482.81 1081.02,484.365C1082.51,485.921 1084.36,486.698 1086.59,486.698C1088.24,486.698 1089.66,486.264 1090.83,485.394C1092,484.524 1092.93,483.136 1093.61,481.23ZM1078.79,473.929L1093.66,473.929C1093.46,471.688 1092.89,470.008 1091.96,468.887C1090.52,467.148 1088.65,466.278 1086.36,466.278C1084.29,466.278 1082.54,466.972 1081.12,468.36C1079.71,469.748 1078.94,471.605 1078.79,473.929Z" style="fill:rgb(63,63,63);fill-rule:nonzero;"/>
                    <path d="M1135.61,486.523C1133.93,487.944 1132.32,488.948 1130.77,489.533C1129.23,490.119 1127.57,490.411 1125.8,490.411C1122.87,490.411 1120.62,489.701 1119.05,488.279C1117.48,486.841 1116.69,485.009 1116.69,482.785C1116.69,481.48 1116.98,480.293 1117.57,479.223C1118.17,478.136 1118.95,477.266 1119.9,476.614C1120.87,475.961 1121.96,475.468 1123.16,475.134C1124.05,474.899 1125.39,474.674 1127.18,474.456C1130.82,474.021 1133.51,473.503 1135.23,472.901C1135.25,472.282 1135.26,471.889 1135.26,471.722C1135.26,469.882 1134.83,468.586 1133.98,467.833C1132.82,466.813 1131.11,466.303 1128.83,466.303C1126.71,466.303 1125.14,466.679 1124.12,467.432C1123.11,468.168 1122.37,469.481 1121.88,471.371L1117.47,470.768C1117.87,468.879 1118.53,467.357 1119.45,466.203C1120.37,465.032 1121.7,464.137 1123.44,463.518C1125.18,462.883 1127.19,462.565 1129.49,462.565C1131.76,462.565 1133.61,462.833 1135.03,463.368C1136.45,463.903 1137.5,464.58 1138.17,465.4C1138.84,466.203 1139.3,467.223 1139.57,468.461C1139.72,469.23 1139.8,470.618 1139.8,472.625L1139.8,478.646C1139.8,482.844 1139.89,485.503 1140.07,486.623C1140.27,487.727 1140.66,488.789 1141.23,489.809L1136.51,489.809C1136.04,488.873 1135.74,487.777 1135.61,486.523ZM1135.23,476.438C1133.59,477.107 1131.13,477.676 1127.86,478.144C1126,478.412 1124.69,478.713 1123.92,479.047C1123.15,479.382 1122.55,479.875 1122.13,480.527C1121.72,481.163 1121.51,481.873 1121.51,482.66C1121.51,483.864 1121.96,484.867 1122.86,485.67C1123.78,486.473 1125.12,486.874 1126.88,486.874C1128.62,486.874 1130.16,486.498 1131.52,485.745C1132.87,484.976 1133.87,483.931 1134.5,482.609C1134.99,481.589 1135.23,480.084 1135.23,478.094L1135.23,476.438Z" style="fill:rgb(63,63,63);fill-rule:nonzero;"/>
                    <path d="M1146.75,489.809L1146.75,463.167L1150.81,463.167L1150.81,467.206C1151.85,465.316 1152.8,464.07 1153.67,463.468C1154.56,462.866 1155.53,462.565 1156.58,462.565C1158.1,462.565 1159.65,463.05 1161.22,464.02L1159.66,468.21C1158.56,467.557 1157.46,467.231 1156.35,467.231C1155.37,467.231 1154.48,467.532 1153.69,468.134C1152.91,468.72 1152.35,469.539 1152.01,470.593C1151.51,472.198 1151.26,473.954 1151.26,475.861L1151.26,489.809L1146.75,489.809Z" style="fill:rgb(63,63,63);fill-rule:nonzero;"/>
                </g>
                <g transform="matrix(0.622843,0,0,0.622843,-406.655,37.8322)">
                    <path d="M741.697,489.809L741.697,453.032L749.022,453.032L757.727,479.072C758.53,481.497 759.116,483.312 759.484,484.516C759.902,483.178 760.554,481.213 761.44,478.621L770.246,453.032L776.793,453.032L776.793,489.809L772.102,489.809L772.102,459.028L761.415,489.809L757.025,489.809L746.388,458.501L746.388,489.809L741.697,489.809Z" style="fill:rgb(63,63,63);fill-rule:nonzero;"/>
                    <path d="M782.388,476.488C782.388,471.555 783.759,467.9 786.502,465.525C788.793,463.552 791.586,462.565 794.881,462.565C798.543,462.565 801.537,463.769 803.862,466.178C806.186,468.569 807.349,471.881 807.349,476.112C807.349,479.54 806.83,482.241 805.793,484.215C804.773,486.172 803.276,487.694 801.303,488.781C799.346,489.868 797.205,490.411 794.881,490.411C791.151,490.411 788.132,489.216 785.824,486.824C783.533,484.432 782.388,480.987 782.388,476.488ZM787.029,476.488C787.029,479.9 787.773,482.459 789.261,484.165C790.75,485.854 792.623,486.698 794.881,486.698C797.122,486.698 798.987,485.846 800.475,484.14C801.963,482.434 802.708,479.833 802.708,476.338C802.708,473.043 801.955,470.551 800.45,468.862C798.961,467.156 797.105,466.303 794.881,466.303C792.623,466.303 790.75,467.148 789.261,468.837C787.773,470.526 787.029,473.076 787.029,476.488Z" style="fill:rgb(63,63,63);fill-rule:nonzero;"/>
                    <path d="M822.501,485.77L823.153,489.759C821.882,490.027 820.745,490.16 819.742,490.16C818.103,490.16 816.831,489.901 815.928,489.383C815.025,488.864 814.39,488.187 814.022,487.351C813.654,486.498 813.47,484.717 813.47,482.007L813.47,466.679L810.158,466.679L810.158,463.167L813.47,463.167L813.47,456.569L817.96,453.86L817.96,463.167L822.501,463.167L822.501,466.679L817.96,466.679L817.96,482.258C817.96,483.546 818.036,484.374 818.186,484.742C818.353,485.11 818.613,485.402 818.964,485.62C819.332,485.837 819.85,485.946 820.519,485.946C821.021,485.946 821.682,485.887 822.501,485.77Z" style="fill:rgb(63,63,63);fill-rule:nonzero;"/>
                    <path d="M825.235,476.488C825.235,471.555 826.607,467.9 829.35,465.525C831.641,463.552 834.434,462.565 837.729,462.565C841.391,462.565 844.385,463.769 846.71,466.178C849.034,468.569 850.197,471.881 850.197,476.112C850.197,479.54 849.678,482.241 848.641,484.215C847.621,486.172 846.124,487.694 844.151,488.781C842.194,489.868 840.053,490.411 837.729,490.411C833.999,490.411 830.98,489.216 828.672,486.824C826.381,484.432 825.235,480.987 825.235,476.488ZM829.877,476.488C829.877,479.9 830.621,482.459 832.109,484.165C833.598,485.854 835.471,486.698 837.729,486.698C839.97,486.698 841.834,485.846 843.323,484.14C844.811,482.434 845.556,479.833 845.556,476.338C845.556,473.043 844.803,470.551 843.298,468.862C841.809,467.156 839.953,466.303 837.729,466.303C835.471,466.303 833.598,467.148 832.109,468.837C830.621,470.526 829.877,473.076 829.877,476.488Z" style="fill:rgb(63,63,63);fill-rule:nonzero;"/>
                    <path d="M855.44,489.809L855.44,463.167L859.504,463.167L859.504,467.206C860.541,465.316 861.494,464.07 862.364,463.468C863.25,462.866 864.22,462.565 865.274,462.565C866.796,462.565 868.343,463.05 869.915,464.02L868.359,468.21C867.256,467.557 866.152,467.231 865.048,467.231C864.061,467.231 863.175,467.532 862.389,468.134C861.603,468.72 861.042,469.539 860.708,470.593C860.206,472.198 859.955,473.954 859.955,475.861L859.955,489.809L855.44,489.809Z" style="fill:rgb(63,63,63);fill-rule:nonzero;"/>
                </g>
                <g transform="matrix(0.622843,0,0,0.622843,1271.54,0.0377693)">
                    <path d="M738.11,489.809L752.334,470.643L739.791,453.032L745.586,453.032L752.259,462.465C753.647,464.422 754.633,465.927 755.219,466.98C756.038,465.642 757.008,464.246 758.129,462.791L765.529,453.032L770.823,453.032L757.903,470.367L771.826,489.809L765.805,489.809L756.548,476.689C756.03,475.936 755.495,475.117 754.943,474.23C754.123,475.568 753.538,476.488 753.187,476.99L743.955,489.809L738.11,489.809Z" style="fill:rgb(63,63,63);fill-rule:nonzero;"/>
                    <path d="M786.627,489.809L772.378,453.032L777.646,453.032L787.204,479.749C787.974,481.89 788.617,483.897 789.136,485.77C789.705,483.763 790.365,481.756 791.118,479.749L801.052,453.032L806.019,453.032L791.619,489.809L786.627,489.809Z" style="fill:rgb(63,63,63);fill-rule:nonzero;"/>
                    <path d="M825.562,489.809L821.046,489.809L821.046,461.035C819.959,462.072 818.529,463.109 816.756,464.146C815,465.183 813.42,465.96 812.015,466.479L812.015,462.114C814.54,460.926 816.748,459.488 818.638,457.799C820.528,456.11 821.866,454.471 822.652,452.882L825.562,452.882L825.562,489.809Z" style="fill:rgb(63,63,63);fill-rule:nonzero;"/>
                </g>
                <g transform="matrix(0.622843,0,0,0.622843,1269.45,221.337)">
                    <path d="M738.11,489.809L752.334,470.643L739.791,453.032L745.586,453.032L752.259,462.465C753.647,464.422 754.633,465.927 755.219,466.98C756.038,465.642 757.008,464.246 758.129,462.791L765.529,453.032L770.823,453.032L757.903,470.367L771.826,489.809L765.805,489.809L756.548,476.689C756.03,475.936 755.495,475.117 754.943,474.23C754.123,475.568 753.538,476.488 753.187,476.99L743.955,489.809L738.11,489.809Z" style="fill:rgb(63,63,63);fill-rule:nonzero;"/>
                    <path d="M786.627,489.809L772.378,453.032L777.646,453.032L787.204,479.749C787.974,481.89 788.617,483.897 789.136,485.77C789.705,483.763 790.365,481.756 791.118,479.749L801.052,453.032L806.019,453.032L791.619,489.809L786.627,489.809Z" style="fill:rgb(63,63,63);fill-rule:nonzero;"/>
                    <path d="M832.285,485.469L832.285,489.809L807.976,489.809C807.942,488.722 808.118,487.677 808.503,486.673C809.122,485.018 810.108,483.387 811.463,481.782C812.834,480.176 814.808,478.32 817.383,476.212C821.381,472.934 824.082,470.342 825.486,468.435C826.891,466.512 827.594,464.698 827.594,462.992C827.594,461.202 826.95,459.697 825.662,458.476C824.391,457.238 822.727,456.62 820.67,456.62C818.496,456.62 816.756,457.272 815.452,458.576C814.147,459.881 813.487,461.687 813.47,463.995L808.829,463.518C809.147,460.057 810.342,457.422 812.416,455.616C814.49,453.793 817.275,452.882 820.77,452.882C824.299,452.882 827.092,453.86 829.149,455.817C831.206,457.774 832.235,460.199 832.235,463.092C832.235,464.564 831.934,466.01 831.332,467.432C830.729,468.854 829.726,470.35 828.321,471.922C826.933,473.495 824.617,475.652 821.372,478.395C818.663,480.669 816.923,482.216 816.154,483.036C815.385,483.839 814.749,484.65 814.248,485.469L832.285,485.469Z" style="fill:rgb(63,63,63);fill-rule:nonzero;"/>
                </g>
                <g transform="matrix(0.622843,0,0,0.622843,1269.33,441.856)">
                    <path d="M738.11,489.809L752.334,470.643L739.791,453.032L745.586,453.032L752.259,462.465C753.647,464.422 754.633,465.927 755.219,466.98C756.038,465.642 757.008,464.246 758.129,462.791L765.529,453.032L770.823,453.032L757.903,470.367L771.826,489.809L765.805,489.809L756.548,476.689C756.03,475.936 755.495,475.117 754.943,474.23C754.123,475.568 753.538,476.488 753.187,476.99L743.955,489.809L738.11,489.809Z" style="fill:rgb(63,63,63);fill-rule:nonzero;"/>
                    <path d="M786.627,489.809L772.378,453.032L777.646,453.032L787.204,479.749C787.974,481.89 788.617,483.897 789.136,485.77C789.705,483.763 790.365,481.756 791.118,479.749L801.052,453.032L806.019,453.032L791.619,489.809L786.627,489.809Z" style="fill:rgb(63,63,63);fill-rule:nonzero;"/>
                    <path d="M808.578,480.101L813.094,479.499C813.612,482.057 814.49,483.906 815.728,485.043C816.982,486.163 818.504,486.724 820.293,486.724C822.417,486.724 824.207,485.988 825.662,484.516C827.134,483.044 827.87,481.221 827.87,479.047C827.87,476.973 827.192,475.267 825.838,473.929C824.483,472.575 822.76,471.897 820.67,471.897C819.817,471.897 818.755,472.065 817.484,472.399L817.985,468.435C818.287,468.469 818.529,468.486 818.713,468.486C820.636,468.486 822.367,467.984 823.906,466.98C825.445,465.977 826.214,464.43 826.214,462.339C826.214,460.684 825.654,459.312 824.533,458.225C823.413,457.138 821.966,456.595 820.193,456.595C818.437,456.595 816.974,457.146 815.803,458.25C814.632,459.354 813.88,461.01 813.545,463.217L809.03,462.415C809.581,459.388 810.836,457.046 812.793,455.39C814.749,453.718 817.183,452.882 820.093,452.882C822.1,452.882 823.948,453.317 825.637,454.186C827.326,455.039 828.614,456.21 829.5,457.698C830.403,459.187 830.855,460.767 830.855,462.44C830.855,464.029 830.428,465.475 829.575,466.78C828.723,468.084 827.46,469.121 825.787,469.89C827.962,470.392 829.651,471.437 830.855,473.026C832.059,474.598 832.661,476.572 832.661,478.947C832.661,482.158 831.49,484.884 829.149,487.125C826.808,489.349 823.847,490.461 820.268,490.461C817.041,490.461 814.356,489.5 812.216,487.577C810.092,485.653 808.879,483.161 808.578,480.101Z" style="fill:rgb(63,63,63);fill-rule:nonzero;"/>
                </g>
                <g transform="matrix(0.622843,0,0,0.622843,1269.38,661.635)">
                    <path d="M738.11,489.809L752.334,470.643L739.791,453.032L745.586,453.032L752.259,462.465C753.647,464.422 754.633,465.927 755.219,466.98C756.038,465.642 757.008,464.246 758.129,462.791L765.529,453.032L770.823,453.032L757.903,470.367L771.826,489.809L765.805,489.809L756.548,476.689C756.03,475.936 755.495,475.117 754.943,474.23C754.123,475.568 753.538,476.488 753.187,476.99L743.955,489.809L738.11,489.809Z" style="fill:rgb(63,63,63);fill-rule:nonzero;"/>
                    <path d="M786.627,489.809L772.378,453.032L777.646,453.032L787.204,479.749C787.974,481.89 788.617,483.897 789.136,485.77C789.705,483.763 790.365,481.756 791.118,479.749L801.052,453.032L806.019,453.032L791.619,489.809L786.627,489.809Z" style="fill:rgb(63,63,63);fill-rule:nonzero;"/>
                    <path d="M823.028,489.809L823.028,481.004L807.073,481.004L807.073,476.865L823.856,453.032L827.543,453.032L827.543,476.865L832.511,476.865L832.511,481.004L827.543,481.004L827.543,489.809L823.028,489.809ZM823.028,476.865L823.028,460.282L811.513,476.865L823.028,476.865Z" style="fill:rgb(63,63,63);fill-rule:nonzero;"/>
                </g>
                <g transform="matrix(0.622843,0,0,0.622843,1269.24,881.228)">
                    <path d="M738.11,489.809L752.334,470.643L739.791,453.032L745.586,453.032L752.259,462.465C753.647,464.422 754.633,465.927 755.219,466.98C756.038,465.642 757.008,464.246 758.129,462.791L765.529,453.032L770.823,453.032L757.903,470.367L771.826,489.809L765.805,489.809L756.548,476.689C756.03,475.936 755.495,475.117 754.943,474.23C754.123,475.568 753.538,476.488 753.187,476.99L743.955,489.809L738.11,489.809Z" style="fill:rgb(63,63,63);fill-rule:nonzero;"/>
                    <path d="M786.627,489.809L772.378,453.032L777.646,453.032L787.204,479.749C787.974,481.89 788.617,483.897 789.136,485.77C789.705,483.763 790.365,481.756 791.118,479.749L801.052,453.032L806.019,453.032L791.619,489.809L786.627,489.809Z" style="fill:rgb(63,63,63);fill-rule:nonzero;"/>
                    <path d="M808.553,480.176L813.294,479.775C813.645,482.083 814.457,483.822 815.728,484.993C817.015,486.147 818.562,486.724 820.369,486.724C822.543,486.724 824.383,485.904 825.888,484.265C827.393,482.626 828.146,480.452 828.146,477.743C828.146,475.167 827.418,473.135 825.963,471.647C824.525,470.158 822.635,469.414 820.293,469.414C818.838,469.414 817.526,469.748 816.355,470.417C815.184,471.07 814.264,471.922 813.595,472.976L809.356,472.424L812.918,453.534L831.206,453.534L831.206,457.849L816.53,457.849L814.549,467.733C816.756,466.194 819.073,465.425 821.498,465.425C824.709,465.425 827.418,466.537 829.626,468.762C831.833,470.986 832.937,473.846 832.937,477.341C832.937,480.669 831.967,483.546 830.027,485.971C827.669,488.948 824.449,490.436 820.369,490.436C817.024,490.436 814.289,489.5 812.165,487.627C810.058,485.754 808.854,483.27 808.553,480.176Z" style="fill:rgb(63,63,63);fill-rule:nonzero;"/>
                </g>
            </g>
            <g id="etc" transform="matrix(1,0,0,1,2.5,-132.941)">
                <g transform="matrix(1.01494,0,0,1.01494,-11.2898,-3.58517)">
                    <path d="M750.753,242.453L594.74,242.453C594.74,242.453 594.734,242.446 594.724,242.433L421,242.433L421,237.507L594.74,237.507L594.76,237.527L750.753,237.527L750.753,228.154L770.786,240L750.753,251.845L750.753,242.453ZM594.722,242.431C594.501,242.158 592.277,239.417 592.277,239.971C592.277,242.098 594.501,242.406 594.722,242.431Z" style="fill:rgb(160,160,164);"/>
                </g>
                <path d="M1164.37,242.16L933.1,242.16L933.1,237.16L1685.68,237.16L1685.68,227.637L1706.01,239.66L1685.68,251.683L1685.68,242.16L1169.37,242.16L1169.37,453.66C1169.37,455.58 1170.95,457.16 1172.87,457.16L1685.68,457.16L1685.68,447.637L1706.01,459.66L1685.68,471.683L1685.68,462.16L1382.5,462.16L1382.5,677.16L1685.68,677.16L1685.68,667.65L1706.01,679.659L1685.68,691.683L1685.68,682.16L1382.5,682.16L1382.5,897.16L1685.68,897.16L1685.68,887.65L1706.01,899.659L1685.68,911.683L1685.68,902.16L1382.5,902.16L1382.5,1116.82L1685.68,1116.82L1685.68,1107.3L1706.01,1119.32L1685.68,1131.34L1685.68,1121.82L1382.5,1121.82L1382.5,1333.66C1382.5,1335.58 1384.08,1337.16 1386,1337.16L1685.68,1337.16L1685.68,1327.65L1706.01,1339.66L1685.68,1351.68L1685.68,1342.16L1386,1342.16C1381.34,1342.16 1377.5,1338.32 1377.5,1333.66L1377.5,462.16L1172.87,462.16C1168.21,462.16 1164.37,458.323 1164.37,453.66L1164.37,242.16Z" style="fill:rgb(160,160,164);"/>
                <path d="M1868.18,462.5L1811,462.5L1811,457.5L1868.18,457.5L1868.18,447.977L1888.51,460L1868.18,472.023L1868.18,462.5Z" style="fill:rgb(160,160,164);"/>
                <path d="M1866.68,682.5L1811,682.5L1811,677.5L1866.68,677.5L1866.68,667.977L1887.01,680L1866.68,692.023L1866.68,682.5Z" style="fill:rgb(160,160,164);"/>
                <path d="M1866.68,902.5L1811,902.5L1811,897.5L1866.68,897.5L1866.68,887.977L1887.01,900L1866.68,912.023L1866.68,902.5Z" style="fill:rgb(160,160,164);"/>
                <path d="M1866.68,1122.17L1811,1122.17L1811,1117.17L1866.68,1117.17L1866.68,1107.65L1887.01,1119.66L1866.68,1131.68L1866.68,1122.17Z" style="fill:rgb(160,160,164);"/>
                <path d="M1866.68,1342.5L1811,1342.5L1811,1337.5L1866.68,1337.5L1866.68,1327.98L1887.01,1340L1866.68,1352.02L1866.68,1342.5Z" style="fill:rgb(160,160,164);"/>
                <g transform="matrix(1.08381,0,0,1,-156.986,0)">
                    <path d="M1868.57,242.607L1813.5,242.607L1813.5,237.393L1868.57,237.393L1868.57,227.977L1887.33,240L1868.57,252.023L1868.57,242.607Z" style="fill:rgb(160,160,164);"/>
                </g>
                <g transform="matrix(1,0,0,1,-4,129.441)">
                    <path d="M791.75,278.059L763.25,278.059C761.87,278.059 760.75,276.939 760.75,275.559C760.75,274.179 761.87,273.059 763.25,273.059L775,273.059L775,110.559C775,64.998 811.939,28.059 857.5,28.059C903.061,28.059 940,64.998 940,110.559L940,273.059L951.75,273.059C953.13,273.059 954.25,274.179 954.25,275.559C954.25,276.939 953.13,278.059 951.75,278.059L923.25,278.059C921.87,278.059 920.75,276.939 920.75,275.559C920.75,274.179 921.87,273.059 923.25,273.059L935,273.059L935,138.907C923.438,170.505 893.101,193.059 857.5,193.059C821.899,193.059 791.562,170.505 780,138.907L780,273.059L791.75,273.059C793.13,273.059 794.25,274.179 794.25,275.559C794.25,276.939 793.13,278.059 791.75,278.059Z" style="fill:rgb(160,160,164);"/>
                </g>
                <path d="M1761,235.245L1811,205.245L1811,274.075L1758.5,242.575L1706,274.075L1706,205.245L1756,235.245L1756,212.274L1731,212.274L1731,157.614L1786,157.614L1786,212.274L1761,212.274L1761,235.245ZM1763.36,239.66L1806,265.245L1806,214.075L1763.36,239.66ZM1753.64,239.66L1711,214.075L1711,265.245L1753.64,239.66ZM1736,162.614L1736,207.274C1736,207.274 1781,207.274 1781,207.274L1781,162.614L1736,162.614Z" style="fill:rgb(160,160,164);"/>
                <g transform="matrix(1,0,0,1.53218,0,-236.688)">
                    <path d="M1761,452.058L1811,432.478L1811,477.402L1758.5,456.843L1706,477.402L1706,432.478L1756,452.058L1756,436.992L1731,436.992L1731,401.317L1786,401.317L1786,436.992L1761,436.992L1761,452.058ZM1763.36,454.94L1806,471.638L1806,438.242L1763.36,454.94ZM1753.64,454.94L1711,438.242L1711,471.638L1753.64,454.94ZM1736,404.58L1736,433.728C1736,433.728 1781,433.728 1781,433.728L1781,404.58L1736,404.58Z" style="fill:rgb(160,160,164);"/>
                </g>
                <path d="M1761,674.185L1811,644.185L1811,713.015L1758.5,681.515L1706,713.015L1706,644.185L1756,674.185L1756,651.11L1731,651.11L1731,596.45L1786,596.45L1786,651.11L1761,651.11L1761,674.185ZM1736,601.45L1736,646.11C1736,646.11 1781,646.11 1781,646.11L1781,601.45L1736,601.45ZM1753.64,678.6L1711,653.015L1711,704.185L1753.64,678.6ZM1763.36,678.6L1806,704.185L1806,653.015L1763.36,678.6Z" style="fill:rgb(160,160,164);"/>
                <path d="M1761,895.585L1811,865.585L1811,934.415L1758.5,902.915L1706,934.415L1706,865.585L1756,895.585L1756,872.5L1731,872.5L1731,817.84L1786,817.84L1786,872.5L1761,872.5L1761,895.585ZM1753.64,900L1711,874.415L1711,925.585L1753.64,900ZM1763.36,900L1806,925.585L1806,874.415L1763.36,900ZM1736,822.84L1736,867.5C1736,867.5 1781,867.5 1781,867.5L1781,822.84L1736,822.84Z" style="fill:rgb(160,160,164);"/>
                <path d="M1761,1335.25L1811,1305.25L1811,1374.08L1758.5,1342.58L1706,1374.08L1706,1305.25L1756,1335.25L1756,1312.16L1731,1312.16L1731,1257.5L1786,1257.5L1786,1312.16L1761,1312.16L1761,1335.25ZM1753.64,1339.66L1711,1314.08L1711,1365.25L1753.64,1339.66ZM1763.36,1339.66L1806,1365.25L1806,1314.08L1763.36,1339.66ZM1736,1262.5L1736,1307.16C1736,1307.16 1781,1307.16 1781,1307.16L1781,1262.5L1736,1262.5Z" style="fill:rgb(160,160,164);"/>
                <g transform="matrix(1,0,0,1.53061,0,-585.937)">
                    <path d="M1761,1111.6L1811,1092L1811,1136.96L1758.5,1116.38L1706,1136.96L1706,1092L1756,1111.6L1756,1096.51L1731,1096.51L1731,1060.8L1786,1060.8L1786,1096.51L1761,1096.51L1761,1111.6ZM1753.64,1114.48L1711,1097.77L1711,1131.19L1753.64,1114.48ZM1763.36,1114.48L1806,1131.19L1806,1097.77L1763.36,1114.48ZM1736,1064.06L1736,1093.24C1736,1093.24 1781,1093.24 1781,1093.24L1781,1064.06L1736,1064.06Z" style="fill:rgb(160,160,164);"/>
                </g>
                <g transform="matrix(1,0,0,1,-2.5,132.941)">
                    <path d="M174.456,118.419C171.932,131.995 164.574,141.459 151.01,141.459L139.127,141.459L154.488,156.834L40.982,156.834L56.343,141.459L44.46,141.459C27.224,141.459 20,126.158 20,106.559L20,98.459C20,78.86 27.224,63.559 44.46,63.559L151.01,63.559C166.253,63.559 173.659,75.511 175.173,91.819L211.66,91.819L211.66,19.536L379.17,48.162C379.17,48.162 379.17,34.359 379.17,34.359L361.48,34.359L360.788,34.275L360.072,34.009L359.427,33.597L358.896,33.108L358.43,32.512L358.04,31.761L357.855,31.143L357.78,30.419L357.86,29.677L358.069,29.025L358.524,28.243L359.058,27.661L359.637,27.223L360.286,26.895L361.48,26.659L403.45,26.659L404.186,26.725L404.928,26.944L405.627,27.328L406.219,27.858L406.661,28.48L406.95,29.137L407.15,30.419L407.087,31.161L406.889,31.908L406.525,32.653L405.949,33.363L405.433,33.775L404.82,34.096L404.145,34.294L403.45,34.359L386.94,34.359L386.94,49.49L421,55.31L421,155.104L418.925,155.463C418.925,155.463 278.26,179.749 259.43,183L259.43,197.659L275.54,197.659L276.675,197.884L277.308,198.231L277.787,198.641L278.232,199.2L278.552,199.809L278.761,200.483L278.84,201.239L278.601,202.659L278.301,203.315L277.855,203.933L277.359,204.386L276.698,204.764L275.54,204.999L233.57,204.999L232.834,204.933L232.092,204.715L231.393,204.33L230.801,203.8L230.359,203.178L230.07,202.521L229.87,201.239L229.932,200.575L230.12,199.924L230.439,199.303L230.891,198.74L231.464,198.27L232.129,197.926L232.844,197.723L233.57,197.659L251.26,197.659L251.26,184.411L211.66,191.248L211.66,118.419L174.456,118.419ZM41.96,136.315L41.96,68.703C29.445,70.191 25,83.039 25,98.459L25,106.559C25,121.979 29.445,134.827 41.96,136.315ZM153.51,68.703L153.51,136.315C166.032,134.828 170.47,121.98 170.47,106.559L170.47,98.459C170.47,83.038 166.032,70.19 153.51,68.703ZM148.51,136.459L148.51,68.559L46.96,68.559L46.96,136.459L148.51,136.459ZM132.059,141.459L63.411,141.459L53.045,151.834L142.425,151.834L132.059,141.459Z" style="fill:rgb(160,160,164);"/>
                </g>
            </g>
        </g>
    </g>
</svg>
